<?xml version="1.0" encoding="utf-8"?>
<!-- Generator: Adobe Illustrator 19.2.1, SVG Export Plug-In . SVG Version: 6.00 Build 0)  -->
<svg version="1.1" xmlns="http://www.w3.org/2000/svg" xmlns:xlink="http://www.w3.org/1999/xlink" x="0px" y="0px"
	 viewBox="0 0 1408.2 1408.2" style="enable-background:new 0 0 1408.2 1408.2;" xml:space="preserve">
<style type="text/css">
	.st0{fill:#020202;stroke:#B73834;stroke-width:9;stroke-miterlimit:10;}
	.st1{display:none;}
	.st2{display:inline;fill:#B5B5B5;}
	.st3{font-family:'HelveticaNeue-CondensedBlack';}
	.st4{font-size:88.2766px;}
	.st5{display:none;fill:#B73834;}
	.st6{display:inline;fill:#797979;}
	.st7{font-family:'HelveticaNeue';}
	.st8{font-size:58.1155px;}
	.st9{display:none;fill:#797979;}
	.st10{font-size:73px;}
	.st11{font-family:'HelveticaNeue-Medium';}
	.st12{fill:#B5B5B5;}
	.st13{fill:#B73834;}
	.st14{fill:#797979;}
</style>
<g id="border">
	<rect x="4.5" y="4.5" class="st0" width="1399.2" height="1399.2"/>
</g>
<g id="content">
	<g id="untraced">
		<g class="st1">
			<text transform="matrix(1 0 0 1 118.4692 190.312)" class="st2 st3 st4">33</text>
		</g>
		<text transform="matrix(1 0 0 1 222.1943 191.0474)" class="st5 st3 st4">BRANDED SOLID</text>
		<text transform="matrix(1 0 0 1 123.7334 255.0479)" class="st1"><tspan x="0" y="0" class="st6 st7 st8">Marketing Points </tspan><tspan x="0" y="69.7" class="st6 st7 st8">Design Points</tspan><tspan x="0" y="139.5" class="st6 st7 st8">Orbits Globally [Og]</tspan></text>
		<text transform="matrix(1 0 0 1 849.0917 1193)" class="st9 st7 st10">Atomic Mass</text>
		<text transform="matrix(1 0 0 1 1051.8066 1281)" class="st9 st11 st10">193.14</text>
	</g>
	<g id="Layer_5">
		<g>
			<g>
				<path class="st12" d="M129.6,131.4c3.2-3.1,8.1-4.6,14.5-4.6c3.8,0,7,0.4,9.5,1.1c2.5,0.8,4.5,1.9,6,3.4
					c1.5,1.5,2.6,3.3,3.2,5.4c0.6,2.1,0.9,4.6,0.9,7.4c0,1.2-0.1,2.5-0.4,3.8c-0.3,1.3-0.8,2.6-1.5,3.7c-0.7,1.1-1.6,2.2-2.7,3
					c-1.1,0.9-2.5,1.5-4.1,1.9v0.2c3.6,0.7,6.2,2.3,7.7,4.8c1.5,2.5,2.2,5.5,2.2,8.9c0,7.1-1.7,12.1-5.1,15.2
					c-3.4,3.1-8.5,4.6-15.3,4.6c-3.5,0-6.6-0.3-9.2-0.9c-2.6-0.6-4.8-1.6-6.5-3.2c-1.7-1.5-3-3.6-3.8-6.1c-0.8-2.6-1.2-5.7-1.2-9.5
					h15.4c0,1.8,0.1,3.2,0.3,4.4c0.2,1.2,0.5,2.2,0.8,3c0.7,1.5,1.9,2.3,3.7,2.3c0.9,0,1.7-0.1,2.3-0.4c0.6-0.3,1-0.8,1.4-1.5
					c0.3-0.7,0.5-1.7,0.7-3c0.1-1.3,0.2-2.9,0.2-4.8c0-3.1-0.5-5.1-1.5-6.2c-1-1.1-2.5-1.6-4.5-1.6h-4.1v-10.2h2.4
					c1.2,0,2.3-0.1,3.2-0.4c0.9-0.2,1.6-0.7,2.2-1.3c0.6-0.6,1-1.5,1.3-2.7c0.3-1.1,0.4-2.6,0.4-4.5c0-2.6-0.3-4.4-1-5.3
					c-0.7-0.9-1.7-1.4-3.1-1.4c-1.6,0-2.7,0.6-3.4,1.9c-0.7,1.2-1,3.5-1,6.8h-14.8C124.6,139.2,126.3,134.4,129.6,131.4z"/>
				<path class="st12" d="M175.5,131.4c3.2-3.1,8.1-4.6,14.5-4.6c3.8,0,7,0.4,9.5,1.1c2.5,0.8,4.5,1.9,6,3.4
					c1.5,1.5,2.6,3.3,3.2,5.4c0.6,2.1,0.9,4.6,0.9,7.4c0,1.2-0.1,2.5-0.4,3.8c-0.3,1.3-0.8,2.6-1.5,3.7c-0.7,1.1-1.6,2.2-2.7,3
					c-1.1,0.9-2.5,1.5-4.1,1.9v0.2c3.6,0.7,6.2,2.3,7.7,4.8c1.5,2.5,2.2,5.5,2.2,8.9c0,7.1-1.7,12.1-5.1,15.2
					c-3.4,3.1-8.5,4.6-15.3,4.6c-3.5,0-6.6-0.3-9.2-0.9c-2.6-0.6-4.8-1.6-6.5-3.2c-1.7-1.5-3-3.6-3.8-6.1c-0.8-2.6-1.2-5.7-1.2-9.5
					H185c0,1.8,0.1,3.2,0.3,4.4c0.2,1.2,0.5,2.2,0.8,3c0.7,1.5,1.9,2.3,3.7,2.3c0.9,0,1.7-0.1,2.3-0.4c0.6-0.3,1-0.8,1.4-1.5
					c0.3-0.7,0.5-1.7,0.7-3c0.1-1.3,0.2-2.9,0.2-4.8c0-3.1-0.5-5.1-1.5-6.2c-1-1.1-2.5-1.6-4.5-1.6h-4.1v-10.2h2.4
					c1.2,0,2.3-0.1,3.2-0.4c0.9-0.2,1.6-0.7,2.2-1.3c0.6-0.6,1-1.5,1.3-2.7c0.3-1.1,0.4-2.6,0.4-4.5c0-2.6-0.3-4.4-1-5.3
					c-0.7-0.9-1.7-1.4-3.1-1.4c-1.6,0-2.7,0.6-3.4,1.9c-0.7,1.2-1,3.5-1,6.8h-14.8C170.5,139.2,172.2,134.4,175.5,131.4z"/>
			</g>
		</g>
		<g>
			<path class="st13" d="M255.9,127c5.9,0,10.2,1.4,13,4.3c2.8,2.9,4.2,6.7,4.2,11.4c0,1.6-0.2,3.3-0.6,4.8c-0.4,1.6-1,3-1.8,4.2
				c-0.8,1.3-1.8,2.3-3,3.2s-2.7,1.5-4.5,1.9v0.2c2.1,0.2,3.8,0.7,5.3,1.6c1.5,0.9,2.7,2,3.6,3.4c0.9,1.4,1.6,2.8,2.1,4.5
				c0.4,1.6,0.7,3.3,0.7,4.9c0,2.7-0.4,5.2-1.1,7.5c-0.7,2.3-1.8,4.3-3.3,5.9c-1.5,1.6-3.5,2.9-5.9,3.8c-2.4,0.9-5.3,1.4-8.7,1.4
				h-24.8v-63H255.9z M251.5,151.7c1.7,0,3-0.6,3.9-1.9c0.9-1.3,1.3-2.8,1.3-4.5c0-1.8-0.4-3.3-1.3-4.6c-0.9-1.3-2.2-1.9-3.9-1.9h-4
				v12.9H251.5z M252.1,178.2c1.5,0,2.9-0.6,4.1-1.9c1.2-1.3,1.8-3.2,1.8-5.9c0-2.5-0.6-4.4-1.8-5.6c-1.2-1.3-2.5-1.9-4.1-1.9h-4.6
				v15.4H252.1z"/>
			<path class="st13" d="M306.9,127c3.1,0,5.8,0.4,8,1.2c2.2,0.8,4,2,5.4,3.5c1.4,1.5,2.4,3.3,3,5.3c0.6,2.1,0.9,4.3,0.9,6.7
				c0,4.2-0.9,7.7-2.6,10.2c-1.7,2.6-4.4,4.2-8.2,4.8v0.2c3.9,0.4,6.6,1.7,8.1,4.1c1.5,2.4,2.2,5.7,2.2,10v5.4c0,0.8,0,1.7,0,2.6
				s0,1.7,0.1,2.5c0.1,0.8,0.1,1.5,0.3,2.2c0.1,0.6,0.3,1.1,0.4,1.5c0.2,0.4,0.5,0.7,0.7,1c0.2,0.3,0.6,0.6,1.1,0.9v0.9h-17.5
				c-0.4-0.8-0.7-1.8-0.9-2.9c-0.2-1.1-0.4-2.2-0.4-3.4c-0.1-1.1-0.1-2.2-0.2-3.2c0-1,0-1.9,0-2.5v-4.2c0-1.8-0.1-3.2-0.3-4.4
				c-0.2-1.2-0.5-2.1-0.9-2.8c-0.4-0.7-1-1.1-1.7-1.4c-0.7-0.3-1.5-0.4-2.5-0.4h-4.3V190h-16.4v-63H306.9z M300.9,153.7
				c2.4,0,4.1-0.7,5.2-2.1c1.1-1.4,1.7-3.2,1.7-5.4c0-2.6-0.5-4.5-1.6-5.6c-1.1-1.1-2.9-1.7-5.3-1.7h-3.2v14.8H300.9z"/>
			<path class="st13" d="M362.9,127l15.4,63h-17.5l-1.7-11H346l-1.7,11h-17.2l15.1-63H362.9z M352.5,139.9l-4.5,26.7h9.2l-4.5-26.7
				H352.5z"/>
			<path class="st13" d="M399.3,127l10.6,38.8h0.2V127h15.4v63h-18l-10.9-38.9h-0.2V190H381v-63H399.3z"/>
			<path class="st13" d="M457.1,127c4.8,0,8.5,0.9,11.1,2.6c2.6,1.7,4.6,4.1,6,7s2.1,6.3,2.4,10.1c0.3,3.8,0.4,7.8,0.4,11.9
				c0,4.1-0.1,8.1-0.4,11.9c-0.3,3.8-1.1,7.2-2.4,10.1s-3.3,5.2-6,7c-2.6,1.7-6.4,2.6-11.1,2.6h-23.8v-63H457.1z M452.9,178.2
				c1.6,0,2.9-0.2,3.8-0.7c0.9-0.4,1.7-1.4,2.2-2.8c0.5-1.4,0.8-3.4,1-6c0.1-2.6,0.2-6,0.2-10.2s-0.1-7.6-0.2-10.2
				c-0.1-2.6-0.5-4.6-1-6c-0.5-1.4-1.2-2.3-2.2-2.8c-0.9-0.4-2.2-0.7-3.8-0.7h-3.3v39.4H452.9z"/>
			<path class="st13" d="M521.2,127v13.4h-20.9v10.8h19.6v12.9h-19.6v12.5H522V190h-38.1v-63H521.2z"/>
			<path class="st13" d="M551.9,127c4.8,0,8.5,0.9,11.1,2.6c2.6,1.7,4.6,4.1,6,7s2.1,6.3,2.4,10.1c0.3,3.8,0.4,7.8,0.4,11.9
				c0,4.1-0.1,8.1-0.4,11.9c-0.3,3.8-1.1,7.2-2.4,10.1s-3.3,5.2-6,7c-2.6,1.7-6.4,2.6-11.1,2.6H528v-63H551.9z M547.7,178.2
				c1.6,0,2.9-0.2,3.8-0.7c0.9-0.4,1.7-1.4,2.2-2.8c0.5-1.4,0.8-3.4,1-6c0.1-2.6,0.2-6,0.2-10.2s-0.1-7.6-0.2-10.2
				c-0.1-2.6-0.5-4.6-1-6c-0.5-1.4-1.2-2.3-2.2-2.8c-0.9-0.4-2.2-0.7-3.8-0.7h-3.3v39.4H547.7z"/>
			<path class="st13" d="M626.2,143.7c0-1.9-0.4-3.5-1.1-4.8c-0.8-1.3-1.9-2-3.5-2c-1.8,0-3.1,0.6-3.9,1.7c-0.8,1.1-1.2,2.4-1.2,3.8
				c0,2.1,0.7,3.7,2,4.9c1.3,1.2,3,2.3,5,3.1c2,0.9,4.1,1.8,6.4,2.7c2.3,0.9,4.4,2.1,6.4,3.6c2,1.5,3.7,3.4,5,5.8
				c1.3,2.4,2,5.5,2,9.3c0,6.7-1.9,11.6-5.7,14.6c-3.8,3-9.4,4.5-16.6,4.5c-3.4,0-6.4-0.3-9-0.8c-2.6-0.6-4.8-1.5-6.6-2.9
				c-1.8-1.4-3.2-3.2-4.1-5.4c-0.9-2.2-1.4-5-1.4-8.3v-2.2h15.9v1.5c0,2.7,0.5,4.6,1.5,5.7c1,1.1,2.3,1.6,3.9,1.6
				c1.7,0,3-0.6,3.9-1.8c0.9-1.2,1.4-2.6,1.4-4.3c0-2.1-0.6-3.7-1.9-4.9c-1.3-1.2-2.9-2.2-4.8-3.1c-1.9-0.9-4-1.7-6.2-2.6
				c-2.2-0.9-4.3-2-6.2-3.4c-1.9-1.4-3.5-3.3-4.8-5.6c-1.3-2.3-1.9-5.3-1.9-9c0-6.4,1.7-11.3,5.1-14.7c3.4-3.4,8.6-5,15.5-5
				c7.2,0,12.4,1.5,15.6,4.6c3.2,3.1,4.8,8,4.8,14.8h-15.4V143.7z"/>
			<path class="st13" d="M648.4,143.5c0.8-4.1,2-7.5,3.8-10.2c1.8-2.6,4.1-4.5,7-5.7c2.9-1.2,6.4-1.8,10.6-1.8
				c4.2,0,7.7,0.6,10.6,1.8c2.9,1.2,5.2,3.1,7,5.7c1.8,2.6,3,6,3.8,10.2c0.8,4.1,1.1,9.2,1.1,15.1c0,5.9-0.4,10.9-1.1,15.1
				c-0.8,4.1-2,7.5-3.8,10.2c-1.8,2.6-4.1,4.5-7,5.6c-2.9,1.1-6.4,1.7-10.6,1.7c-4.2,0-7.7-0.6-10.6-1.7c-2.9-1.1-5.2-3-7-5.6
				c-1.8-2.6-3-6-3.8-10.2c-0.8-4.1-1.1-9.2-1.1-15.1C647.2,152.6,647.6,147.6,648.4,143.5z M664.3,169.1c0.1,2.8,0.4,5,0.8,6.7
				c0.4,1.6,0.9,2.8,1.7,3.4c0.7,0.6,1.7,1,3,1s2.2-0.3,3-1c0.7-0.6,1.3-1.8,1.7-3.4c0.4-1.6,0.6-3.9,0.8-6.7
				c0.1-2.8,0.2-6.3,0.2-10.5s-0.1-7.8-0.2-10.5c-0.1-2.8-0.4-5-0.8-6.7c-0.4-1.6-0.9-2.8-1.7-3.4c-0.7-0.6-1.7-1-3-1s-2.2,0.3-3,1
				c-0.7,0.6-1.3,1.8-1.7,3.4c-0.4,1.6-0.6,3.9-0.8,6.7c-0.1,2.8-0.2,6.3-0.2,10.5S664.2,166.3,664.3,169.1z"/>
			<path class="st13" d="M714.6,127v49.6h20.2V190h-36.6v-63H714.6z"/>
			<path class="st13" d="M754.8,127v63h-16.4v-63H754.8z"/>
			<path class="st13" d="M785.8,127c4.8,0,8.5,0.9,11.1,2.6c2.6,1.7,4.6,4.1,6,7s2.1,6.3,2.4,10.1c0.3,3.8,0.4,7.8,0.4,11.9
				c0,4.1-0.1,8.1-0.4,11.9c-0.3,3.8-1.1,7.2-2.4,10.1s-3.3,5.2-6,7c-2.6,1.7-6.4,2.6-11.1,2.6H762v-63H785.8z M781.7,178.2
				c1.6,0,2.9-0.2,3.8-0.7c0.9-0.4,1.7-1.4,2.2-2.8c0.5-1.4,0.8-3.4,1-6c0.1-2.6,0.2-6,0.2-10.2s-0.1-7.6-0.2-10.2
				c-0.1-2.6-0.5-4.6-1-6c-0.5-1.4-1.2-2.3-2.2-2.8c-0.9-0.4-2.2-0.7-3.8-0.7h-3.3v39.4H781.7z"/>
		</g>
		<g>
			<path class="st14" d="M875.9,1139.9l20.4,52.1h-7.7l-5.7-15.7h-22l-5.8,15.7H848l20.3-52.1H875.9z M880.8,1170.5l-8.7-24.3h-0.1
				l-8.8,24.3H880.8z"/>
			<path class="st14" d="M916.5,1154.3v5.5H909v23.4c0,0.7,0.1,1.3,0.2,1.8c0.1,0.4,0.4,0.8,0.7,1c0.3,0.2,0.8,0.4,1.4,0.5
				c0.6,0.1,1.4,0.1,2.4,0.1h2.8v5.5h-4.7c-1.6,0-3-0.1-4.1-0.3c-1.1-0.2-2.1-0.6-2.8-1.2c-0.7-0.6-1.2-1.4-1.6-2.5
				c-0.3-1.1-0.5-2.5-0.5-4.2v-24h-6.4v-5.5h6.4v-11.3h6.2v11.3H916.5z"/>
			<path class="st14" d="M922.5,1165.4c0.8-2.4,1.9-4.5,3.5-6.3c1.6-1.8,3.5-3.2,5.8-4.2c2.3-1,4.9-1.5,7.9-1.5c3,0,5.7,0.5,7.9,1.5
				c2.3,1,4.2,2.4,5.7,4.2c1.6,1.8,2.7,3.9,3.5,6.3c0.8,2.4,1.2,5,1.2,7.8s-0.4,5.4-1.2,7.7c-0.8,2.4-1.9,4.5-3.5,6.2
				c-1.6,1.8-3.5,3.2-5.7,4.2c-2.3,1-4.9,1.5-7.9,1.5c-3,0-5.6-0.5-7.9-1.5c-2.3-1-4.2-2.4-5.8-4.2c-1.6-1.8-2.7-3.9-3.5-6.2
				c-0.8-2.4-1.2-5-1.2-7.7S921.7,1167.8,922.5,1165.4z M928.8,1179.3c0.6,1.8,1.4,3.3,2.5,4.5c1.1,1.2,2.3,2.1,3.8,2.7
				c1.4,0.6,3,0.9,4.6,0.9c1.6,0,3.1-0.3,4.6-0.9c1.4-0.6,2.7-1.5,3.8-2.7c1.1-1.2,1.9-2.7,2.5-4.5c0.6-1.8,0.9-3.8,0.9-6.1
				c0-2.3-0.3-4.3-0.9-6.1c-0.6-1.8-1.4-3.3-2.5-4.5c-1.1-1.2-2.3-2.1-3.8-2.8c-1.4-0.6-3-0.9-4.6-0.9c-1.6,0-3.1,0.3-4.6,0.9
				c-1.4,0.6-2.7,1.6-3.8,2.8c-1.1,1.2-1.9,2.7-2.5,4.5c-0.6,1.8-0.9,3.8-0.9,6.1C927.9,1175.5,928.2,1177.5,928.8,1179.3z"/>
			<path class="st14" d="M971.1,1154.3v5.5h0.1c2.8-4.3,6.9-6.4,12.2-6.4c2.3,0,4.5,0.5,6.4,1.5c1.9,1,3.2,2.6,4,5
				c1.3-2,2.9-3.6,5-4.7c2.1-1.1,4.3-1.7,6.8-1.7c1.9,0,3.6,0.2,5.1,0.6c1.5,0.4,2.8,1.1,3.9,1.9c1.1,0.9,1.9,2,2.6,3.4
				c0.6,1.4,0.9,3.1,0.9,5v27.7h-6.2v-24.7c0-1.2-0.1-2.3-0.3-3.3c-0.2-1-0.6-1.9-1.1-2.7c-0.5-0.8-1.3-1.4-2.2-1.8
				c-0.9-0.4-2.2-0.7-3.7-0.7c-3.1,0-5.5,0.9-7.2,2.6s-2.6,4.1-2.6,7v23.5h-6.2v-24.7c0-1.2-0.1-2.3-0.3-3.4c-0.2-1-0.6-1.9-1.1-2.7
				c-0.5-0.8-1.3-1.3-2.2-1.8c-0.9-0.4-2.1-0.6-3.5-0.6c-1.8,0-3.3,0.4-4.6,1.1c-1.3,0.7-2.3,1.6-3.1,2.6c-0.8,1-1.4,2.1-1.8,3.2
				c-0.4,1.1-0.5,2-0.5,2.7v23.5h-6.2v-37.7H971.1z"/>
			<path class="st14" d="M1027.9,1147.5v-7.6h6.2v7.6H1027.9z M1034.1,1154.3v37.7h-6.2v-37.7H1034.1z"/>
			<path class="st14" d="M1066.3,1160.8c-1.6-1.3-3.6-2-6.3-2c-2.2,0-4.1,0.4-5.6,1.2c-1.5,0.8-2.7,1.9-3.6,3.3
				c-0.9,1.4-1.5,2.9-1.9,4.7c-0.4,1.8-0.6,3.6-0.6,5.5c0,1.8,0.2,3.5,0.6,5.1c0.4,1.7,1.1,3.1,1.9,4.4c0.9,1.3,2,2.3,3.4,3.1
				c1.4,0.8,3.1,1.2,5,1.2c3.1,0,5.5-0.8,7.2-2.4c1.7-1.6,2.8-3.9,3.2-6.8h6.4c-0.7,4.7-2.4,8.3-5.2,10.8c-2.8,2.5-6.6,3.8-11.4,3.8
				c-2.9,0-5.4-0.5-7.6-1.4s-4.1-2.2-5.5-3.9c-1.5-1.7-2.6-3.7-3.4-6.1c-0.8-2.4-1.1-5-1.1-7.8c0-2.8,0.4-5.5,1.1-7.9
				c0.7-2.5,1.8-4.6,3.3-6.4c1.5-1.8,3.3-3.3,5.6-4.3c2.2-1,4.8-1.6,7.8-1.6c2.1,0,4.1,0.3,6,0.8c1.9,0.5,3.5,1.3,5,2.4
				c1.4,1.1,2.6,2.4,3.5,4.1c0.9,1.6,1.5,3.6,1.8,5.8h-6.4C1068.9,1164,1067.9,1162.1,1066.3,1160.8z"/>
			<path class="st14" d="M1113.9,1139.9l16.4,43.8l16.5-43.8h9.5v52.1h-6.6v-43.4h-0.1l-16.3,43.4h-5.9l-16.3-43.4h-0.1v43.4h-6.6
				v-52.1H1113.9z"/>
			<path class="st14" d="M1200.3,1191.9c-1.1,0.6-2.6,0.9-4.5,0.9c-1.6,0-2.9-0.5-3.8-1.4c-0.9-0.9-1.4-2.4-1.4-4.4
				c-1.7,2-3.7,3.5-6,4.4c-2.3,0.9-4.7,1.4-7.3,1.4c-1.7,0-3.3-0.2-4.9-0.6c-1.5-0.4-2.9-1-4-1.8c-1.1-0.8-2-1.9-2.7-3.2
				c-0.7-1.3-1-3-1-4.9c0-2.1,0.4-3.9,1.1-5.3c0.7-1.4,1.7-2.5,2.9-3.3c1.2-0.9,2.6-1.5,4.1-1.9c1.5-0.4,3.1-0.8,4.7-1.1
				c1.7-0.3,3.3-0.6,4.9-0.8c1.5-0.2,2.9-0.4,4.1-0.7c1.2-0.3,2.1-0.8,2.8-1.4c0.7-0.6,1-1.5,1-2.7c0-1.4-0.3-2.5-0.8-3.3
				c-0.5-0.8-1.2-1.5-2-1.9c-0.8-0.4-1.7-0.7-2.7-0.9c-1-0.1-2-0.2-3-0.2c-2.6,0-4.8,0.5-6.6,1.5c-1.8,1-2.7,2.9-2.8,5.7h-6.2
				c0.1-2.3,0.6-4.3,1.5-5.9c0.9-1.6,2-2.9,3.5-3.9c1.5-1,3.1-1.7,5-2.2c1.9-0.4,3.9-0.7,6-0.7c1.7,0,3.4,0.1,5.1,0.4
				s3.2,0.7,4.6,1.5c1.4,0.8,2.5,1.8,3.3,3.2c0.8,1.4,1.2,3.1,1.2,5.3v19.4c0,1.5,0.1,2.5,0.3,3.2c0.2,0.7,0.7,1,1.7,1
				c0.5,0,1.2-0.1,1.9-0.3V1191.9z M1190.2,1172.5c-0.8,0.6-1.8,1-3.1,1.3c-1.3,0.3-2.6,0.5-4,0.7c-1.4,0.2-2.8,0.4-4.2,0.6
				c-1.4,0.2-2.7,0.6-3.8,1.1c-1.1,0.5-2,1.2-2.7,2.1c-0.7,0.9-1.1,2.1-1.1,3.7c0,1,0.2,1.9,0.6,2.6c0.4,0.7,0.9,1.3,1.6,1.7
				c0.7,0.4,1.4,0.8,2.3,0.9c0.9,0.2,1.8,0.3,2.8,0.3c2,0,3.8-0.3,5.3-0.8s2.7-1.3,3.6-2.1c0.9-0.8,1.6-1.8,2-2.8s0.7-1.9,0.7-2.8
				V1172.5z"/>
			<path class="st14" d="M1210.8,1183.6c0.6,0.9,1.4,1.7,2.3,2.3c0.9,0.6,2,1,3.2,1.2c1.2,0.2,2.4,0.4,3.7,0.4c1,0,2-0.1,3.1-0.2
				c1.1-0.1,2.1-0.4,3-0.8c0.9-0.4,1.6-1,2.2-1.7c0.6-0.8,0.9-1.7,0.9-2.9c0-1.6-0.6-2.8-1.8-3.7c-1.2-0.8-2.7-1.5-4.6-2
				c-1.8-0.5-3.8-1-5.9-1.4c-2.1-0.4-4.1-1-6-1.8c-1.8-0.8-3.3-1.8-4.6-3.2c-1.2-1.4-1.8-3.3-1.8-5.7c0-1.9,0.4-3.5,1.3-4.9
				c0.9-1.4,1.9-2.5,3.3-3.3c1.3-0.9,2.8-1.5,4.5-1.9c1.7-0.4,3.3-0.6,5-0.6c2.1,0,4.1,0.2,5.9,0.5c1.8,0.4,3.4,1,4.8,1.9
				c1.4,0.9,2.5,2.1,3.3,3.7c0.8,1.5,1.3,3.4,1.5,5.7h-6.2c-0.1-1.2-0.4-2.2-0.9-3c-0.5-0.8-1.2-1.4-2-1.9c-0.8-0.5-1.7-0.8-2.7-1.1
				c-1-0.2-2-0.3-3-0.3c-0.9,0-1.9,0.1-2.8,0.2c-0.9,0.1-1.8,0.4-2.6,0.8s-1.4,0.9-1.9,1.5c-0.5,0.6-0.7,1.4-0.7,2.4
				c0,1.1,0.4,2,1.1,2.7c0.8,0.7,1.7,1.3,2.9,1.8c1.2,0.5,2.5,0.9,3.9,1.2s2.9,0.6,4.4,1c1.6,0.3,3.1,0.8,4.6,1.2s2.8,1.1,3.9,1.9
				c1.1,0.8,2.1,1.8,2.8,3c0.7,1.2,1.1,2.7,1.1,4.5c0,2.3-0.5,4.2-1.4,5.7c-0.9,1.5-2.2,2.7-3.7,3.7c-1.5,0.9-3.3,1.6-5.2,1.9
				c-1.9,0.4-3.8,0.5-5.7,0.5c-2.1,0-4.1-0.2-6-0.7c-1.9-0.4-3.6-1.2-5-2.2c-1.5-1-2.6-2.3-3.5-3.9c-0.9-1.6-1.4-3.6-1.5-6h6.2
				C1209.9,1181.5,1210.2,1182.6,1210.8,1183.6z"/>
			<path class="st14" d="M1247.3,1183.6c0.6,0.9,1.4,1.7,2.3,2.3c0.9,0.6,2,1,3.2,1.2c1.2,0.2,2.4,0.4,3.7,0.4c1,0,2-0.1,3.1-0.2
				c1.1-0.1,2.1-0.4,3-0.8c0.9-0.4,1.6-1,2.2-1.7c0.6-0.8,0.9-1.7,0.9-2.9c0-1.6-0.6-2.8-1.8-3.7c-1.2-0.8-2.7-1.5-4.6-2
				c-1.8-0.5-3.8-1-5.9-1.4c-2.1-0.4-4.1-1-6-1.8c-1.8-0.8-3.3-1.8-4.6-3.2c-1.2-1.4-1.8-3.3-1.8-5.7c0-1.9,0.4-3.5,1.3-4.9
				c0.9-1.4,1.9-2.5,3.3-3.3c1.3-0.9,2.8-1.5,4.5-1.9c1.7-0.4,3.3-0.6,5-0.6c2.1,0,4.1,0.2,5.9,0.5c1.8,0.4,3.4,1,4.8,1.9
				c1.4,0.9,2.5,2.1,3.3,3.7c0.8,1.5,1.3,3.4,1.5,5.7h-6.2c-0.1-1.2-0.4-2.2-0.9-3c-0.5-0.8-1.2-1.4-2-1.9c-0.8-0.5-1.7-0.8-2.7-1.1
				c-1-0.2-2-0.3-3-0.3c-0.9,0-1.9,0.1-2.8,0.2c-0.9,0.1-1.8,0.4-2.6,0.8s-1.4,0.9-1.9,1.5c-0.5,0.6-0.7,1.4-0.7,2.4
				c0,1.1,0.4,2,1.1,2.7c0.8,0.7,1.7,1.3,2.9,1.8c1.2,0.5,2.5,0.9,3.9,1.2s2.9,0.6,4.4,1c1.6,0.3,3.1,0.8,4.6,1.2s2.8,1.1,3.9,1.9
				c1.1,0.8,2.1,1.8,2.8,3c0.7,1.2,1.1,2.7,1.1,4.5c0,2.3-0.5,4.2-1.4,5.7c-0.9,1.5-2.2,2.7-3.7,3.7c-1.5,0.9-3.3,1.6-5.2,1.9
				c-1.9,0.4-3.8,0.5-5.7,0.5c-2.1,0-4.1-0.2-6-0.7c-1.9-0.4-3.6-1.2-5-2.2c-1.5-1-2.6-2.3-3.5-3.9c-0.9-1.6-1.4-3.6-1.5-6h6.2
				C1246.4,1181.5,1246.7,1182.6,1247.3,1183.6z"/>
		</g>
		<g id="Layer_6">
			<g>
				<path class="st14" d="M130.9,216.6l13.1,34.9l13.1-34.9h7.6V258h-5.2v-34.5h-0.1l-13,34.5h-4.7l-13-34.5h-0.1V258h-5.2v-41.5
					H130.9z"/>
				<path class="st14" d="M199.7,257.9c-0.9,0.5-2,0.8-3.5,0.8c-1.3,0-2.3-0.4-3.1-1.1c-0.8-0.7-1.1-1.9-1.1-3.5
					c-1.4,1.6-2.9,2.8-4.7,3.5c-1.8,0.7-3.7,1.1-5.8,1.1c-1.4,0-2.6-0.2-3.9-0.5c-1.2-0.3-2.3-0.8-3.2-1.5c-0.9-0.7-1.6-1.5-2.1-2.6
					c-0.5-1.1-0.8-2.4-0.8-3.9c0-1.7,0.3-3.1,0.9-4.2c0.6-1.1,1.3-2,2.3-2.6c0.9-0.7,2-1.2,3.3-1.5c1.2-0.3,2.5-0.6,3.7-0.9
					c1.4-0.3,2.6-0.5,3.9-0.6c1.2-0.1,2.3-0.3,3.2-0.6c0.9-0.3,1.7-0.6,2.2-1.1c0.5-0.5,0.8-1.2,0.8-2.1c0-1.1-0.2-2-0.6-2.6
					c-0.4-0.7-0.9-1.2-1.6-1.5c-0.6-0.3-1.4-0.6-2.2-0.7c-0.8-0.1-1.6-0.2-2.4-0.2c-2.1,0-3.8,0.4-5.2,1.2c-1.4,0.8-2.2,2.3-2.3,4.5
					h-4.9c0.1-1.9,0.5-3.4,1.2-4.7c0.7-1.3,1.6-2.3,2.8-3.1c1.2-0.8,2.5-1.4,4-1.7c1.5-0.3,3.1-0.5,4.8-0.5c1.4,0,2.7,0.1,4,0.3
					c1.3,0.2,2.5,0.6,3.6,1.2c1.1,0.6,2,1.4,2.6,2.5c0.7,1.1,1,2.5,1,4.2V251c0,1.2,0.1,2,0.2,2.6c0.1,0.5,0.6,0.8,1.4,0.8
					c0.4,0,0.9-0.1,1.5-0.2V257.9z M191.7,242.5c-0.6,0.5-1.4,0.8-2.4,1c-1,0.2-2.1,0.4-3.2,0.5c-1.1,0.1-2.2,0.3-3.3,0.5
					c-1.1,0.2-2.1,0.5-3,0.8c-0.9,0.4-1.6,0.9-2.2,1.6c-0.6,0.7-0.8,1.7-0.8,2.9c0,0.8,0.2,1.5,0.5,2.1c0.3,0.6,0.8,1,1.3,1.4
					c0.5,0.3,1.1,0.6,1.8,0.8s1.4,0.2,2.2,0.2c1.6,0,3-0.2,4.2-0.7c1.2-0.4,2.1-1,2.8-1.7c0.7-0.7,1.3-1.4,1.6-2.2s0.5-1.5,0.5-2.2
					V242.5z"/>
				<path class="st14" d="M208.8,228v6.3h0.1c1.2-2.4,2.7-4.2,4.4-5.4c1.7-1.2,4-1.7,6.6-1.6v5.2c-2,0-3.7,0.3-5.1,0.8
					c-1.4,0.5-2.5,1.3-3.4,2.4c-0.9,1-1.5,2.3-1.9,3.8c-0.4,1.5-0.6,3.2-0.6,5.1V258h-4.9v-30H208.8z"/>
				<path class="st14" d="M228.9,216.6v24.6l13.7-13.1h6.6l-11.9,10.9l12.8,19.1h-6.3l-10.3-15.7l-4.6,4.3V258h-4.9v-41.5H228.9z"/>
				<path class="st14" d="M275.1,256.1c-2.2,1.7-5.1,2.6-8.5,2.6c-2.4,0-4.5-0.4-6.2-1.2c-1.8-0.8-3.2-1.9-4.4-3.3
					c-1.2-1.4-2.1-3.1-2.7-5c-0.6-1.9-0.9-4-1-6.3c0-2.3,0.3-4.4,1-6.3c0.7-1.9,1.7-3.5,2.9-4.9c1.3-1.4,2.8-2.5,4.5-3.3
					c1.7-0.8,3.6-1.2,5.7-1.2c2.7,0,4.9,0.6,6.7,1.7c1.8,1.1,3.2,2.5,4.2,4.2c1.1,1.7,1.8,3.6,2.2,5.6c0.4,2,0.6,3.9,0.5,5.8h-22.5
					c0,1.3,0.1,2.6,0.5,3.7c0.3,1.2,0.9,2.2,1.7,3.1c0.8,0.9,1.8,1.6,3,2.2c1.2,0.5,2.6,0.8,4.2,0.8c2.1,0,3.8-0.5,5.1-1.5
					c1.3-1,2.2-2.4,2.6-4.4h4.9C278.8,251.9,277.3,254.4,275.1,256.1z M273.9,236.8c-0.4-1-1-1.9-1.8-2.7c-0.8-0.8-1.6-1.4-2.7-1.8
					c-1-0.4-2.2-0.7-3.4-0.7c-1.3,0-2.4,0.2-3.5,0.7c-1,0.4-1.9,1.1-2.6,1.8c-0.7,0.8-1.3,1.7-1.7,2.7c-0.4,1-0.7,2.1-0.8,3.3h17.3
					C274.6,239,274.3,237.9,273.9,236.8z"/>
				<path class="st14" d="M297.8,228v4.4h-6V251c0,0.6,0,1,0.1,1.4c0.1,0.3,0.3,0.6,0.6,0.8c0.3,0.2,0.6,0.3,1.1,0.4
					c0.5,0.1,1.1,0.1,1.9,0.1h2.3v4.4h-3.8c-1.3,0-2.4-0.1-3.3-0.3c-0.9-0.2-1.6-0.5-2.2-1c-0.6-0.5-1-1.1-1.2-2
					c-0.3-0.9-0.4-2-0.4-3.4v-19.1h-5.1V228h5.1v-9h4.9v9H297.8z"/>
				<path class="st14" d="M303.6,222.6v-6h4.9v6H303.6z M308.5,228v30h-4.9v-30H308.5z"/>
				<path class="st14" d="M320.9,228v4.8h0.1c2.1-3.6,5.3-5.5,9.8-5.5c2,0,3.6,0.3,4.9,0.8c1.3,0.5,2.4,1.3,3.2,2.3
					c0.8,1,1.4,2.1,1.7,3.5c0.3,1.3,0.5,2.8,0.5,4.4V258h-4.9v-20.3c0-1.9-0.5-3.3-1.6-4.4c-1.1-1.1-2.6-1.6-4.5-1.6
					c-1.5,0-2.8,0.2-3.9,0.7c-1.1,0.5-2,1.1-2.8,2c-0.7,0.9-1.3,1.9-1.7,3c-0.4,1.1-0.6,2.4-0.6,3.7v17h-4.9v-30H320.9z"/>
				<path class="st14" d="M371.1,266.5c-2.2,2.4-5.8,3.7-10.6,3.7c-1.4,0-2.8-0.2-4.3-0.5c-1.5-0.3-2.8-0.8-4-1.5
					c-1.2-0.7-2.2-1.6-2.9-2.7c-0.8-1.1-1.2-2.5-1.3-4.1h4.9c0,0.9,0.3,1.6,0.8,2.3c0.5,0.6,1.2,1.1,1.9,1.5
					c0.8,0.4,1.6,0.7,2.5,0.8c0.9,0.2,1.7,0.3,2.6,0.3c1.6,0,3-0.3,4.1-0.8c1.1-0.6,2.1-1.3,2.8-2.3c0.7-1,1.3-2.2,1.6-3.6
					c0.3-1.4,0.5-2.9,0.5-4.6v-2h-0.1c-0.9,1.9-2.1,3.2-3.9,4.1c-1.7,0.9-3.6,1.3-5.5,1.3c-2.2,0-4.2-0.4-5.9-1.2
					c-1.7-0.8-3.1-1.9-4.2-3.3c-1.1-1.4-2-3-2.5-4.8c-0.6-1.8-0.8-3.8-0.8-5.8c0-1.8,0.2-3.6,0.7-5.5c0.5-1.9,1.2-3.6,2.3-5.1
					c1.1-1.5,2.5-2.8,4.3-3.8c1.8-1,4-1.5,6.6-1.5c1.9,0,3.6,0.4,5.2,1.2c1.6,0.8,2.8,2.1,3.7,3.7h0.1V228h4.6v27.5
					C374.4,260.4,373.3,264.1,371.1,266.5z M364.8,253c1.1-0.7,2.1-1.6,2.8-2.7c0.7-1.1,1.2-2.4,1.5-3.7c0.3-1.4,0.5-2.8,0.5-4.2
					c0-1.3-0.2-2.6-0.5-3.9c-0.3-1.3-0.8-2.4-1.5-3.5c-0.7-1-1.6-1.8-2.6-2.5c-1.1-0.6-2.4-0.9-4-0.9c-1.6,0-2.9,0.3-4.1,0.9
					c-1.1,0.6-2,1.4-2.8,2.4c-0.7,1-1.2,2.2-1.6,3.5c-0.3,1.3-0.5,2.7-0.5,4.1c0,1.4,0.1,2.7,0.4,4.1c0.3,1.4,0.7,2.6,1.4,3.7
					c0.7,1.1,1.5,2,2.6,2.7c1.1,0.7,2.4,1,4.1,1C362.2,254,363.6,253.7,364.8,253z"/>
				<path class="st14" d="M417,216.6c4.2,0,7.4,1.1,9.5,3.2s3.2,5.2,3.2,9c0,3.9-1.1,6.9-3.2,9.1c-2.2,2.2-5.3,3.2-9.5,3.2h-12.7v17
					h-5.5v-41.5H417z M415.2,236.4c3.1,0,5.4-0.6,6.9-1.9c1.5-1.3,2.2-3.2,2.2-5.7c0-2.5-0.7-4.4-2.2-5.7c-1.5-1.3-3.7-1.9-6.9-1.9
					h-10.8v15.2H415.2z"/>
				<path class="st14" d="M435,236.9c0.6-1.9,1.5-3.6,2.8-5c1.2-1.4,2.8-2.5,4.6-3.3c1.8-0.8,3.9-1.2,6.3-1.2c2.4,0,4.5,0.4,6.3,1.2
					c1.8,0.8,3.3,1.9,4.6,3.3c1.2,1.4,2.2,3.1,2.8,5c0.6,1.9,0.9,4,0.9,6.2s-0.3,4.3-0.9,6.2c-0.6,1.9-1.6,3.6-2.8,5
					c-1.2,1.4-2.8,2.5-4.6,3.3c-1.8,0.8-3.9,1.2-6.3,1.2c-2.4,0-4.5-0.4-6.3-1.2c-1.8-0.8-3.4-1.9-4.6-3.3c-1.2-1.4-2.2-3.1-2.8-5
					c-0.6-1.9-0.9-4-0.9-6.2S434.4,238.8,435,236.9z M440,247.9c0.5,1.4,1.2,2.6,2,3.5c0.9,0.9,1.8,1.7,3,2.2
					c1.1,0.5,2.4,0.8,3.6,0.8c1.3,0,2.5-0.3,3.6-0.8c1.1-0.5,2.1-1.2,3-2.2c0.9-0.9,1.5-2.1,2-3.5c0.5-1.4,0.7-3,0.7-4.9
					c0-1.8-0.2-3.4-0.7-4.9c-0.5-1.4-1.2-2.6-2-3.6c-0.9-1-1.9-1.7-3-2.2c-1.1-0.5-2.4-0.8-3.6-0.8c-1.3,0-2.5,0.3-3.6,0.8
					c-1.1,0.5-2.1,1.2-3,2.2c-0.9,1-1.5,2.2-2,3.6c-0.5,1.4-0.7,3-0.7,4.9C439.3,244.9,439.5,246.5,440,247.9z"/>
				<path class="st14" d="M469.3,222.6v-6h4.9v6H469.3z M474.3,228v30h-4.9v-30H474.3z"/>
				<path class="st14" d="M486.6,228v4.8h0.1c2.1-3.6,5.3-5.5,9.8-5.5c2,0,3.6,0.3,4.9,0.8c1.3,0.5,2.4,1.3,3.2,2.3
					c0.8,1,1.4,2.1,1.7,3.5c0.3,1.3,0.5,2.8,0.5,4.4V258h-4.9v-20.3c0-1.9-0.5-3.3-1.6-4.4c-1.1-1.1-2.6-1.6-4.5-1.6
					c-1.5,0-2.8,0.2-3.9,0.7c-1.1,0.5-2,1.1-2.8,2c-0.7,0.9-1.3,1.9-1.7,3c-0.4,1.1-0.6,2.4-0.6,3.7v17h-4.9v-30H486.6z"/>
				<path class="st14" d="M527.1,228v4.4h-6V251c0,0.6,0,1,0.1,1.4c0.1,0.3,0.3,0.6,0.6,0.8c0.3,0.2,0.6,0.3,1.1,0.4
					c0.5,0.1,1.1,0.1,1.9,0.1h2.3v4.4h-3.8c-1.3,0-2.4-0.1-3.3-0.3c-0.9-0.2-1.6-0.5-2.2-1c-0.6-0.5-1-1.1-1.2-2
					c-0.3-0.9-0.4-2-0.4-3.4v-19.1h-5.1V228h5.1v-9h4.9v9H527.1z"/>
				<path class="st14" d="M536.3,251.3c0.5,0.8,1.1,1.4,1.8,1.8c0.8,0.4,1.6,0.8,2.6,1c0.9,0.2,1.9,0.3,2.9,0.3
					c0.8,0,1.6-0.1,2.4-0.2c0.9-0.1,1.6-0.3,2.4-0.6c0.7-0.3,1.3-0.8,1.8-1.4c0.5-0.6,0.7-1.4,0.7-2.3c0-1.3-0.5-2.2-1.5-2.9
					c-1-0.7-2.2-1.2-3.6-1.6c-1.5-0.4-3-0.8-4.7-1.1c-1.7-0.3-3.3-0.8-4.7-1.4c-1.5-0.6-2.7-1.4-3.6-2.5c-1-1.1-1.5-2.6-1.5-4.5
					c0-1.5,0.3-2.8,1-3.9c0.7-1.1,1.5-2,2.6-2.6c1.1-0.7,2.3-1.2,3.6-1.5c1.3-0.3,2.7-0.5,4-0.5c1.7,0,3.3,0.1,4.7,0.4
					c1.4,0.3,2.7,0.8,3.8,1.5c1.1,0.7,2,1.7,2.6,2.9c0.7,1.2,1,2.7,1.2,4.6h-4.9c-0.1-1-0.3-1.8-0.8-2.4c-0.4-0.6-1-1.2-1.6-1.5
					c-0.7-0.4-1.4-0.7-2.2-0.8c-0.8-0.2-1.6-0.3-2.4-0.3c-0.7,0-1.5,0.1-2.2,0.2c-0.8,0.1-1.4,0.3-2.1,0.6c-0.6,0.3-1.1,0.7-1.5,1.2
					c-0.4,0.5-0.6,1.1-0.6,1.9c0,0.9,0.3,1.6,0.9,2.1c0.6,0.6,1.4,1,2.3,1.4c0.9,0.4,2,0.7,3.1,0.9c1.2,0.3,2.3,0.5,3.5,0.8
					c1.2,0.3,2.5,0.6,3.6,1c1.2,0.4,2.2,0.9,3.1,1.5c0.9,0.6,1.6,1.4,2.2,2.4c0.6,1,0.8,2.2,0.8,3.6c0,1.8-0.4,3.3-1.1,4.5
					c-0.8,1.2-1.7,2.2-3,2.9c-1.2,0.7-2.6,1.2-4.1,1.5c-1.5,0.3-3.1,0.4-4.6,0.4c-1.7,0-3.3-0.2-4.8-0.5c-1.5-0.3-2.8-0.9-4-1.7
					c-1.2-0.8-2.1-1.8-2.8-3.1c-0.7-1.3-1.1-2.9-1.2-4.7h4.9C535.6,249.7,535.9,250.6,536.3,251.3z"/>
				<path class="st14" d="M137.5,286.3c6.4,0,11.3,1.6,14.8,4.9c3.4,3.3,5.2,8.2,5.2,14.9c0,3.5-0.4,6.6-1.2,9.3
					c-0.8,2.7-2,5-3.6,6.8c-1.6,1.8-3.7,3.2-6.2,4.2c-2.5,1-5.5,1.5-8.9,1.5h-14.2v-41.5H137.5z M138,323.1c0.6,0,1.4,0,2.3-0.1
					c0.9-0.1,1.9-0.3,3-0.7c1-0.4,2.1-0.9,3.1-1.6c1-0.7,1.9-1.6,2.8-2.8c0.8-1.2,1.5-2.7,2-4.5c0.5-1.8,0.8-4,0.8-6.5
					c0-2.5-0.2-4.7-0.7-6.7c-0.5-2-1.3-3.6-2.4-5c-1.1-1.4-2.5-2.4-4.3-3.1c-1.7-0.7-3.9-1.1-6.5-1.1h-9.3v32.2H138z"/>
				<path class="st14" d="M184.6,325.9c-2.2,1.7-5.1,2.6-8.5,2.6c-2.4,0-4.5-0.4-6.2-1.2c-1.8-0.8-3.2-1.9-4.4-3.3
					c-1.2-1.4-2.1-3.1-2.7-5c-0.6-1.9-0.9-4-1-6.3c0-2.3,0.3-4.4,1-6.3c0.7-1.9,1.7-3.5,2.9-4.9c1.3-1.4,2.8-2.5,4.5-3.3
					c1.7-0.8,3.6-1.2,5.7-1.2c2.7,0,4.9,0.6,6.7,1.7c1.8,1.1,3.2,2.5,4.2,4.2c1.1,1.7,1.8,3.6,2.2,5.6c0.4,2,0.6,3.9,0.5,5.8H167
					c0,1.3,0.1,2.6,0.5,3.7c0.3,1.2,0.9,2.2,1.7,3.1c0.8,0.9,1.8,1.6,3,2.2c1.2,0.5,2.6,0.8,4.2,0.8c2.1,0,3.8-0.5,5.1-1.5
					c1.3-1,2.2-2.4,2.6-4.4h4.9C188.3,321.6,186.9,324.2,184.6,325.9z M183.4,306.6c-0.4-1-1-1.9-1.8-2.7c-0.8-0.8-1.6-1.4-2.7-1.8
					c-1-0.4-2.2-0.7-3.4-0.7c-1.3,0-2.4,0.2-3.5,0.7c-1,0.4-1.9,1.1-2.6,1.8c-0.7,0.8-1.3,1.7-1.7,2.7c-0.4,1-0.7,2.1-0.8,3.3h17.3
					C184.2,308.7,183.9,307.6,183.4,306.6z"/>
				<path class="st14" d="M198.4,321.1c0.5,0.8,1.1,1.4,1.8,1.8c0.8,0.4,1.6,0.8,2.6,1c0.9,0.2,1.9,0.3,2.9,0.3
					c0.8,0,1.6-0.1,2.4-0.2c0.9-0.1,1.6-0.3,2.4-0.6c0.7-0.3,1.3-0.8,1.8-1.4c0.5-0.6,0.7-1.4,0.7-2.3c0-1.3-0.5-2.2-1.5-2.9
					c-1-0.7-2.2-1.2-3.6-1.6c-1.5-0.4-3-0.8-4.7-1.1c-1.7-0.3-3.3-0.8-4.7-1.4c-1.5-0.6-2.7-1.4-3.6-2.5c-1-1.1-1.5-2.6-1.5-4.5
					c0-1.5,0.3-2.8,1-3.9c0.7-1.1,1.5-2,2.6-2.6c1.1-0.7,2.3-1.2,3.6-1.5c1.3-0.3,2.7-0.5,4-0.5c1.7,0,3.3,0.1,4.7,0.4
					c1.4,0.3,2.7,0.8,3.8,1.5c1.1,0.7,2,1.7,2.6,2.9c0.7,1.2,1,2.7,1.2,4.6h-4.9c-0.1-1-0.3-1.8-0.8-2.4c-0.4-0.6-1-1.2-1.6-1.5
					c-0.7-0.4-1.4-0.7-2.2-0.8c-0.8-0.2-1.6-0.3-2.4-0.3c-0.7,0-1.5,0.1-2.2,0.2c-0.8,0.1-1.4,0.3-2.1,0.6c-0.6,0.3-1.1,0.7-1.5,1.2
					c-0.4,0.5-0.6,1.1-0.6,1.9c0,0.9,0.3,1.6,0.9,2.1c0.6,0.6,1.4,1,2.3,1.4c0.9,0.4,2,0.7,3.1,0.9c1.2,0.3,2.3,0.5,3.5,0.8
					c1.2,0.3,2.5,0.6,3.6,1c1.2,0.4,2.2,0.9,3.1,1.5c0.9,0.6,1.6,1.4,2.2,2.4c0.6,1,0.8,2.2,0.8,3.6c0,1.8-0.4,3.3-1.1,4.5
					c-0.8,1.2-1.7,2.2-3,2.9c-1.2,0.7-2.6,1.2-4.1,1.5c-1.5,0.3-3.1,0.4-4.6,0.4c-1.7,0-3.3-0.2-4.8-0.5c-1.5-0.3-2.8-0.9-4-1.7
					c-1.2-0.8-2.1-1.8-2.8-3.1c-0.7-1.3-1.1-2.9-1.2-4.7h4.9C197.6,319.4,197.9,320.3,198.4,321.1z"/>
				<path class="st14" d="M223.9,292.3v-6h4.9v6H223.9z M228.9,297.7v30h-4.9v-30H228.9z"/>
				<path class="st14" d="M259.1,336.3c-2.2,2.4-5.8,3.7-10.6,3.7c-1.4,0-2.8-0.2-4.3-0.5c-1.5-0.3-2.8-0.8-4-1.5
					c-1.2-0.7-2.2-1.6-2.9-2.7c-0.8-1.1-1.2-2.5-1.3-4.1h4.9c0,0.9,0.3,1.6,0.8,2.3c0.5,0.6,1.2,1.1,1.9,1.5
					c0.8,0.4,1.6,0.7,2.5,0.8c0.9,0.2,1.7,0.3,2.6,0.3c1.6,0,3-0.3,4.1-0.8c1.1-0.6,2.1-1.3,2.8-2.3c0.7-1,1.3-2.2,1.6-3.6
					c0.3-1.4,0.5-2.9,0.5-4.6v-2h-0.1c-0.9,1.9-2.1,3.2-3.9,4.1c-1.7,0.9-3.6,1.3-5.5,1.3c-2.2,0-4.2-0.4-5.9-1.2
					c-1.7-0.8-3.1-1.9-4.2-3.3c-1.1-1.4-2-3-2.5-4.8c-0.6-1.8-0.8-3.8-0.8-5.8c0-1.8,0.2-3.6,0.7-5.5c0.5-1.9,1.2-3.6,2.3-5.1
					c1.1-1.5,2.5-2.8,4.3-3.8c1.8-1,4-1.5,6.6-1.5c1.9,0,3.6,0.4,5.2,1.2c1.6,0.8,2.8,2.1,3.7,3.7h0.1v-4.3h4.6v27.5
					C262.5,330.1,261.3,333.8,259.1,336.3z M252.8,322.8c1.1-0.7,2.1-1.6,2.8-2.7c0.7-1.1,1.2-2.4,1.5-3.7c0.3-1.4,0.5-2.8,0.5-4.2
					c0-1.3-0.2-2.6-0.5-3.9c-0.3-1.3-0.8-2.4-1.5-3.5c-0.7-1-1.6-1.8-2.6-2.5c-1.1-0.6-2.4-0.9-4-0.9c-1.6,0-2.9,0.3-4.1,0.9
					c-1.1,0.6-2,1.4-2.8,2.4c-0.7,1-1.2,2.2-1.6,3.5c-0.3,1.3-0.5,2.7-0.5,4.1c0,1.4,0.1,2.7,0.4,4.1c0.3,1.4,0.7,2.6,1.4,3.7
					c0.7,1.1,1.5,2,2.6,2.7c1.1,0.7,2.4,1,4.1,1C250.2,323.8,251.6,323.4,252.8,322.8z"/>
				<path class="st14" d="M274.5,297.7v4.8h0.1c2.1-3.6,5.3-5.5,9.8-5.5c2,0,3.6,0.3,4.9,0.8c1.3,0.5,2.4,1.3,3.2,2.3
					c0.8,1,1.4,2.1,1.7,3.5c0.3,1.3,0.5,2.8,0.5,4.4v19.8h-4.9v-20.3c0-1.9-0.5-3.3-1.6-4.4c-1.1-1.1-2.6-1.6-4.5-1.6
					c-1.5,0-2.8,0.2-3.9,0.7c-1.1,0.5-2,1.1-2.8,2c-0.7,0.9-1.3,1.9-1.7,3c-0.4,1.1-0.6,2.4-0.6,3.7v17h-4.9v-30H274.5z"/>
				<path class="st14" d="M337.4,286.3c4.2,0,7.4,1.1,9.5,3.2s3.2,5.2,3.2,9c0,3.9-1.1,6.9-3.2,9.1c-2.2,2.2-5.3,3.2-9.5,3.2h-12.7
					v17h-5.5v-41.5H337.4z M335.5,306.2c3.1,0,5.4-0.6,6.9-1.9c1.5-1.3,2.2-3.2,2.2-5.7c0-2.5-0.7-4.4-2.2-5.7
					c-1.5-1.3-3.7-1.9-6.9-1.9h-10.8v15.2H335.5z"/>
				<path class="st14" d="M355.3,306.6c0.6-1.9,1.5-3.6,2.8-5c1.2-1.4,2.8-2.5,4.6-3.3c1.8-0.8,3.9-1.2,6.3-1.2
					c2.4,0,4.5,0.4,6.3,1.2c1.8,0.8,3.3,1.9,4.6,3.3c1.2,1.4,2.2,3.1,2.8,5c0.6,1.9,0.9,4,0.9,6.2s-0.3,4.3-0.9,6.2
					c-0.6,1.9-1.6,3.6-2.8,5c-1.2,1.4-2.8,2.5-4.6,3.3c-1.8,0.8-3.9,1.2-6.3,1.2c-2.4,0-4.5-0.4-6.3-1.2c-1.8-0.8-3.4-1.9-4.6-3.3
					c-1.2-1.4-2.2-3.1-2.8-5c-0.6-1.9-0.9-4-0.9-6.2S354.7,308.5,355.3,306.6z M360.3,317.6c0.5,1.4,1.2,2.6,2,3.5
					c0.9,0.9,1.8,1.7,3,2.2c1.1,0.5,2.4,0.8,3.6,0.8c1.3,0,2.5-0.3,3.6-0.8c1.1-0.5,2.1-1.2,3-2.2c0.9-0.9,1.5-2.1,2-3.5
					c0.5-1.4,0.7-3,0.7-4.9c0-1.8-0.2-3.4-0.7-4.9c-0.5-1.4-1.2-2.6-2-3.6c-0.9-1-1.9-1.7-3-2.2c-1.1-0.5-2.4-0.8-3.6-0.8
					c-1.3,0-2.5,0.3-3.6,0.8c-1.1,0.5-2.1,1.2-3,2.2c-0.9,1-1.5,2.2-2,3.6c-0.5,1.4-0.7,3-0.7,4.9
					C359.6,314.6,359.9,316.2,360.3,317.6z"/>
				<path class="st14" d="M389.7,292.3v-6h4.9v6H389.7z M394.6,297.7v30h-4.9v-30H394.6z"/>
				<path class="st14" d="M406.9,297.7v4.8h0.1c2.1-3.6,5.3-5.5,9.8-5.5c2,0,3.6,0.3,4.9,0.8c1.3,0.5,2.4,1.3,3.2,2.3
					c0.8,1,1.4,2.1,1.7,3.5c0.3,1.3,0.5,2.8,0.5,4.4v19.8h-4.9v-20.3c0-1.9-0.5-3.3-1.6-4.4c-1.1-1.1-2.6-1.6-4.5-1.6
					c-1.5,0-2.8,0.2-3.9,0.7c-1.1,0.5-2,1.1-2.8,2c-0.7,0.9-1.3,1.9-1.7,3c-0.4,1.1-0.6,2.4-0.6,3.7v17h-4.9v-30H406.9z"/>
				<path class="st14" d="M447.4,297.7v4.4h-6v18.7c0,0.6,0,1,0.1,1.4c0.1,0.3,0.3,0.6,0.6,0.8c0.3,0.2,0.6,0.3,1.1,0.4
					c0.5,0.1,1.1,0.1,1.9,0.1h2.3v4.4h-3.8c-1.3,0-2.4-0.1-3.3-0.3c-0.9-0.2-1.6-0.5-2.2-1c-0.6-0.5-1-1.1-1.2-2
					c-0.3-0.9-0.4-2-0.4-3.4v-19.1h-5.1v-4.4h5.1v-9h4.9v9H447.4z"/>
				<path class="st14" d="M456.7,321.1c0.5,0.8,1.1,1.4,1.8,1.8c0.8,0.4,1.6,0.8,2.6,1c0.9,0.2,1.9,0.3,2.9,0.3
					c0.8,0,1.6-0.1,2.4-0.2c0.9-0.1,1.6-0.3,2.4-0.6c0.7-0.3,1.3-0.8,1.8-1.4c0.5-0.6,0.7-1.4,0.7-2.3c0-1.3-0.5-2.2-1.5-2.9
					c-1-0.7-2.2-1.2-3.6-1.6c-1.5-0.4-3-0.8-4.7-1.1c-1.7-0.3-3.3-0.8-4.7-1.4c-1.5-0.6-2.7-1.4-3.6-2.5c-1-1.1-1.5-2.6-1.5-4.5
					c0-1.5,0.3-2.8,1-3.9c0.7-1.1,1.5-2,2.6-2.6c1.1-0.7,2.3-1.2,3.6-1.5c1.3-0.3,2.7-0.5,4-0.5c1.7,0,3.3,0.1,4.7,0.4
					c1.4,0.3,2.7,0.8,3.8,1.5c1.1,0.7,2,1.7,2.6,2.9c0.7,1.2,1,2.7,1.2,4.6h-4.9c-0.1-1-0.3-1.8-0.8-2.4c-0.4-0.6-1-1.2-1.6-1.5
					c-0.7-0.4-1.4-0.7-2.2-0.8c-0.8-0.2-1.6-0.3-2.4-0.3c-0.7,0-1.5,0.1-2.2,0.2c-0.8,0.1-1.4,0.3-2.1,0.6c-0.6,0.3-1.1,0.7-1.5,1.2
					c-0.4,0.5-0.6,1.1-0.6,1.9c0,0.9,0.3,1.6,0.9,2.1c0.6,0.6,1.4,1,2.3,1.4c0.9,0.4,2,0.7,3.1,0.9c1.2,0.3,2.3,0.5,3.5,0.8
					c1.2,0.3,2.5,0.6,3.6,1c1.2,0.4,2.2,0.9,3.1,1.5c0.9,0.6,1.6,1.4,2.2,2.4c0.6,1,0.8,2.2,0.8,3.6c0,1.8-0.4,3.3-1.1,4.5
					c-0.8,1.2-1.7,2.2-3,2.9c-1.2,0.7-2.6,1.2-4.1,1.5c-1.5,0.3-3.1,0.4-4.6,0.4c-1.7,0-3.3-0.2-4.8-0.5c-1.5-0.3-2.8-0.9-4-1.7
					c-1.2-0.8-2.1-1.8-2.8-3.1c-0.7-1.3-1.1-2.9-1.2-4.7h4.9C456,319.4,456.2,320.3,456.7,321.1z"/>
				<path class="st14" d="M122.2,368.6c0.8-2.6,2.1-4.9,3.7-6.9c1.7-2,3.7-3.6,6.2-4.8c2.5-1.2,5.4-1.8,8.7-1.8
					c3.3,0,6.2,0.6,8.7,1.8c2.5,1.2,4.6,2.8,6.2,4.8c1.7,2,2.9,4.3,3.7,6.9c0.8,2.6,1.2,5.3,1.2,8.2c0,2.8-0.4,5.5-1.2,8.2
					c-0.8,2.6-2.1,4.9-3.7,6.9c-1.7,2-3.7,3.6-6.2,4.8c-2.5,1.2-5.4,1.8-8.7,1.8c-3.3,0-6.2-0.6-8.7-1.8c-2.5-1.2-4.6-2.8-6.2-4.8
					c-1.7-2-2.9-4.3-3.7-6.9c-0.8-2.6-1.2-5.3-1.2-8.2C120.9,374,121.4,371.2,122.2,368.6z M127.3,383c0.5,2,1.4,3.9,2.6,5.5
					c1.2,1.6,2.7,2.9,4.5,3.9c1.8,1,4,1.5,6.5,1.5c2.5,0,4.7-0.5,6.5-1.5c1.8-1,3.3-2.3,4.5-3.9c1.2-1.6,2-3.5,2.6-5.5
					c0.5-2,0.8-4.1,0.8-6.2c0-2.1-0.3-4.2-0.8-6.2c-0.5-2-1.4-3.9-2.6-5.5c-1.2-1.6-2.7-2.9-4.5-3.9c-1.8-1-4-1.5-6.5-1.5
					c-2.5,0-4.7,0.5-6.5,1.5c-1.8,1-3.3,2.3-4.5,3.9c-1.2,1.6-2,3.5-2.6,5.5c-0.5,2-0.8,4.1-0.8,6.2
					C126.5,378.9,126.7,380.9,127.3,383z"/>
				<path class="st14" d="M171.1,367.5v6.3h0.1c1.2-2.4,2.7-4.2,4.4-5.4c1.7-1.2,4-1.7,6.6-1.6v5.2c-2,0-3.7,0.3-5.1,0.8
					c-1.4,0.5-2.5,1.3-3.4,2.4c-0.9,1-1.5,2.3-1.9,3.8c-0.4,1.5-0.6,3.2-0.6,5.1v13.4h-4.9v-30H171.1z"/>
				<path class="st14" d="M191.1,356v15.5h0.1c0.8-1.7,2.1-2.9,3.8-3.6c1.7-0.8,3.7-1.1,5.8-1.1c2.3,0,4.3,0.4,6.1,1.3
					c1.7,0.9,3.2,2,4.3,3.5c1.1,1.5,2,3.1,2.6,5c0.6,1.9,0.9,3.9,0.9,6c0,2.1-0.3,4.1-0.8,6c-0.6,1.9-1.4,3.6-2.6,5
					c-1.1,1.4-2.6,2.5-4.3,3.3c-1.7,0.8-3.7,1.2-6,1.2c-0.7,0-1.6-0.1-2.5-0.2c-0.9-0.2-1.8-0.4-2.7-0.8c-0.9-0.3-1.7-0.8-2.5-1.4
					c-0.8-0.6-1.5-1.3-2-2.2h-0.1v4h-4.9V356H191.1z M208.8,378.1c-0.4-1.3-0.9-2.5-1.7-3.6c-0.8-1-1.7-1.9-2.9-2.5
					c-1.2-0.6-2.6-0.9-4.2-0.9c-1.7,0-3.1,0.3-4.2,1c-1.2,0.7-2.1,1.5-2.8,2.6c-0.7,1.1-1.3,2.3-1.6,3.6c-0.3,1.4-0.5,2.7-0.5,4.1
					c0,1.5,0.2,2.9,0.5,4.3c0.3,1.4,0.9,2.6,1.7,3.6c0.8,1,1.7,1.9,2.9,2.5c1.2,0.6,2.7,1,4.4,1c1.7,0,3.1-0.3,4.3-1
					c1.1-0.7,2.1-1.5,2.8-2.6c0.7-1.1,1.2-2.3,1.5-3.7c0.3-1.4,0.5-2.8,0.5-4.3C209.4,380.8,209.2,379.5,208.8,378.1z"/>
				<path class="st14" d="M220.7,362.1v-6h4.9v6H220.7z M225.7,367.5v30h-4.9v-30H225.7z"/>
				<path class="st14" d="M246.2,367.5v4.4h-6v18.7c0,0.6,0,1,0.1,1.4c0.1,0.3,0.3,0.6,0.6,0.8c0.3,0.2,0.6,0.3,1.1,0.4
					c0.5,0.1,1.1,0.1,1.9,0.1h2.3v4.4h-3.8c-1.3,0-2.4-0.1-3.3-0.3c-0.9-0.2-1.6-0.5-2.2-1c-0.6-0.5-1-1.1-1.2-2
					c-0.3-0.9-0.4-2-0.4-3.4v-19.1h-5.1v-4.4h5.1v-9h4.9v9H246.2z"/>
				<path class="st14" d="M255.4,390.8c0.5,0.8,1.1,1.4,1.8,1.8c0.8,0.4,1.6,0.8,2.6,1c0.9,0.2,1.9,0.3,2.9,0.3
					c0.8,0,1.6-0.1,2.4-0.2c0.9-0.1,1.6-0.3,2.4-0.6c0.7-0.3,1.3-0.8,1.8-1.4c0.5-0.6,0.7-1.4,0.7-2.3c0-1.3-0.5-2.2-1.5-2.9
					c-1-0.7-2.2-1.2-3.6-1.6c-1.5-0.4-3-0.8-4.7-1.1c-1.7-0.3-3.3-0.8-4.7-1.4c-1.5-0.6-2.7-1.4-3.6-2.5c-1-1.1-1.5-2.6-1.5-4.5
					c0-1.5,0.3-2.8,1-3.9c0.7-1.1,1.5-2,2.6-2.6c1.1-0.7,2.3-1.2,3.6-1.5c1.3-0.3,2.7-0.5,4-0.5c1.7,0,3.3,0.1,4.7,0.4
					c1.4,0.3,2.7,0.8,3.8,1.5c1.1,0.7,2,1.7,2.6,2.9c0.7,1.2,1,2.7,1.2,4.6H269c-0.1-1-0.3-1.8-0.8-2.4c-0.4-0.6-1-1.2-1.6-1.5
					c-0.7-0.4-1.4-0.7-2.2-0.8c-0.8-0.2-1.6-0.3-2.4-0.3c-0.7,0-1.5,0.1-2.2,0.2c-0.8,0.1-1.4,0.3-2.1,0.6c-0.6,0.3-1.1,0.7-1.5,1.2
					c-0.4,0.5-0.6,1.1-0.6,1.9c0,0.9,0.3,1.6,0.9,2.1c0.6,0.6,1.4,1,2.3,1.4c0.9,0.4,2,0.7,3.1,0.9c1.2,0.3,2.3,0.5,3.5,0.8
					c1.2,0.3,2.5,0.6,3.6,1c1.2,0.4,2.2,0.9,3.1,1.5c0.9,0.6,1.6,1.4,2.2,2.4c0.6,1,0.8,2.2,0.8,3.6c0,1.8-0.4,3.3-1.1,4.5
					c-0.8,1.2-1.7,2.2-3,2.9c-1.2,0.7-2.6,1.2-4.1,1.5c-1.5,0.3-3.1,0.4-4.6,0.4c-1.7,0-3.3-0.2-4.8-0.5c-1.5-0.3-2.8-0.9-4-1.7
					c-1.2-0.8-2.1-1.8-2.8-3.1c-0.7-1.3-1.1-2.9-1.2-4.7h4.9C254.7,389.1,255,390.1,255.4,390.8z"/>
				<path class="st14" d="M322.7,397c-2.4,0.9-4.8,1.4-7.3,1.4c-3.1,0-5.9-0.6-8.3-1.7c-2.4-1.1-4.5-2.7-6.2-4.6
					c-1.7-1.9-3-4.2-3.9-6.7c-0.9-2.5-1.3-5.1-1.3-7.8c0-3,0.4-5.9,1.2-8.6c0.8-2.7,2.1-5.1,3.7-7.2c1.6-2.1,3.7-3.7,6.2-4.9
					c2.5-1.2,5.3-1.8,8.6-1.8c2.2,0,4.4,0.3,6.4,0.8c2,0.5,3.8,1.3,5.3,2.5c1.6,1.1,2.9,2.5,4,4.3c1.1,1.7,1.8,3.8,2.2,6.2h-5.5
					c-0.3-1.6-0.8-3-1.5-4.1c-0.7-1.1-1.6-2.1-2.7-2.8c-1.1-0.7-2.3-1.3-3.7-1.7c-1.4-0.4-2.8-0.6-4.4-0.6c-2.5,0-4.7,0.5-6.5,1.5
					c-1.8,1-3.3,2.3-4.4,4c-1.1,1.6-2,3.5-2.5,5.6c-0.5,2.1-0.8,4.3-0.8,6.5c0,2.2,0.3,4.3,0.9,6.2c0.6,2,1.5,3.8,2.7,5.3
					c1.2,1.5,2.7,2.8,4.4,3.7c1.8,0.9,3.8,1.4,6.1,1.4c2.2,0,4.1-0.3,5.8-1c1.7-0.7,3.1-1.7,4.2-2.9c1.1-1.2,2-2.7,2.6-4.3
					c0.6-1.6,0.8-3.4,0.8-5.3h-13.3v-4.6h18.2v21.9h-3.5l-1.5-5.2C327.1,394.5,325.1,396.1,322.7,397z"/>
				<path class="st14" d="M346.2,356v41.5h-4.9V356H346.2z"/>
				<path class="st14" d="M353.2,376.3c0.6-1.9,1.5-3.6,2.8-5c1.2-1.4,2.8-2.5,4.6-3.3c1.8-0.8,3.9-1.2,6.3-1.2
					c2.4,0,4.5,0.4,6.3,1.2c1.8,0.8,3.3,1.9,4.6,3.3c1.2,1.4,2.2,3.1,2.8,5c0.6,1.9,0.9,4,0.9,6.2s-0.3,4.3-0.9,6.2
					c-0.6,1.9-1.6,3.6-2.8,5c-1.2,1.4-2.8,2.5-4.6,3.3c-1.8,0.8-3.9,1.2-6.3,1.2c-2.4,0-4.5-0.4-6.3-1.2c-1.8-0.8-3.4-1.9-4.6-3.3
					c-1.2-1.4-2.2-3.1-2.8-5c-0.6-1.9-0.9-4-0.9-6.2S352.5,378.3,353.2,376.3z M358.2,387.4c0.5,1.4,1.2,2.6,2,3.5
					c0.9,0.9,1.8,1.7,3,2.2c1.1,0.5,2.4,0.8,3.6,0.8c1.3,0,2.5-0.3,3.6-0.8c1.1-0.5,2.1-1.2,3-2.2c0.9-0.9,1.5-2.1,2-3.5
					c0.5-1.4,0.7-3,0.7-4.9c0-1.8-0.2-3.4-0.7-4.9c-0.5-1.4-1.2-2.6-2-3.6c-0.9-1-1.9-1.7-3-2.2c-1.1-0.5-2.4-0.8-3.6-0.8
					c-1.3,0-2.5,0.3-3.6,0.8c-1.1,0.5-2.1,1.2-3,2.2c-0.9,1-1.5,2.2-2,3.6c-0.5,1.4-0.7,3-0.7,4.9
					C357.5,384.4,357.7,386,358.2,387.4z"/>
				<path class="st14" d="M392.3,356v15.5h0.1c0.8-1.7,2.1-2.9,3.8-3.6c1.7-0.8,3.7-1.1,5.8-1.1c2.3,0,4.3,0.4,6.1,1.3
					c1.7,0.9,3.2,2,4.3,3.5c1.1,1.5,2,3.1,2.6,5c0.6,1.9,0.9,3.9,0.9,6c0,2.1-0.3,4.1-0.8,6c-0.6,1.9-1.4,3.6-2.6,5
					c-1.1,1.4-2.6,2.5-4.3,3.3c-1.7,0.8-3.7,1.2-6,1.2c-0.7,0-1.6-0.1-2.5-0.2c-0.9-0.2-1.8-0.4-2.7-0.8c-0.9-0.3-1.7-0.8-2.5-1.4
					c-0.8-0.6-1.5-1.3-2-2.2h-0.1v4h-4.9V356H392.3z M410.1,378.1c-0.4-1.3-0.9-2.5-1.7-3.6c-0.8-1-1.7-1.9-2.9-2.5
					c-1.2-0.6-2.6-0.9-4.2-0.9c-1.7,0-3.1,0.3-4.2,1c-1.2,0.7-2.1,1.5-2.8,2.6c-0.7,1.1-1.3,2.3-1.6,3.6c-0.3,1.4-0.5,2.7-0.5,4.1
					c0,1.5,0.2,2.9,0.5,4.3c0.3,1.4,0.9,2.6,1.7,3.6c0.8,1,1.7,1.9,2.9,2.5c1.2,0.6,2.7,1,4.4,1c1.7,0,3.1-0.3,4.3-1
					c1.1-0.7,2.1-1.5,2.8-2.6c0.7-1.1,1.2-2.3,1.5-3.7c0.3-1.4,0.5-2.8,0.5-4.3C410.6,380.8,410.5,379.5,410.1,378.1z"/>
				<path class="st14" d="M448.3,397.4c-0.9,0.5-2,0.8-3.5,0.8c-1.3,0-2.3-0.4-3.1-1.1c-0.8-0.7-1.1-1.9-1.1-3.5
					c-1.4,1.6-2.9,2.8-4.7,3.5c-1.8,0.7-3.7,1.1-5.8,1.1c-1.4,0-2.6-0.2-3.9-0.5c-1.2-0.3-2.3-0.8-3.2-1.5c-0.9-0.7-1.6-1.5-2.1-2.6
					c-0.5-1.1-0.8-2.4-0.8-3.9c0-1.7,0.3-3.1,0.9-4.2c0.6-1.1,1.3-2,2.3-2.6c0.9-0.7,2-1.2,3.3-1.5c1.2-0.3,2.5-0.6,3.7-0.9
					c1.4-0.3,2.6-0.5,3.9-0.6c1.2-0.1,2.3-0.3,3.2-0.6c0.9-0.3,1.7-0.6,2.2-1.1c0.5-0.5,0.8-1.2,0.8-2.1c0-1.1-0.2-2-0.6-2.6
					c-0.4-0.7-0.9-1.2-1.6-1.5c-0.6-0.3-1.4-0.6-2.2-0.7c-0.8-0.1-1.6-0.2-2.4-0.2c-2.1,0-3.8,0.4-5.2,1.2c-1.4,0.8-2.2,2.3-2.3,4.5
					h-4.9c0.1-1.9,0.5-3.4,1.2-4.7c0.7-1.3,1.6-2.3,2.8-3.1c1.2-0.8,2.5-1.4,4-1.7c1.5-0.3,3.1-0.5,4.8-0.5c1.4,0,2.7,0.1,4,0.3
					c1.3,0.2,2.5,0.6,3.6,1.2c1.1,0.6,2,1.4,2.6,2.5c0.7,1.1,1,2.5,1,4.2v15.4c0,1.2,0.1,2,0.2,2.6c0.1,0.5,0.6,0.8,1.4,0.8
					c0.4,0,0.9-0.1,1.5-0.2V397.4z M440.3,382c-0.6,0.5-1.4,0.8-2.4,1c-1,0.2-2.1,0.4-3.2,0.5c-1.1,0.1-2.2,0.3-3.3,0.5
					c-1.1,0.2-2.1,0.5-3,0.8c-0.9,0.4-1.6,0.9-2.2,1.6c-0.6,0.7-0.8,1.7-0.8,2.9c0,0.8,0.2,1.5,0.5,2.1c0.3,0.6,0.8,1,1.3,1.4
					c0.5,0.3,1.1,0.6,1.8,0.8s1.4,0.2,2.2,0.2c1.6,0,3-0.2,4.2-0.7c1.2-0.4,2.1-1,2.8-1.7c0.7-0.7,1.3-1.4,1.6-2.2s0.5-1.5,0.5-2.2
					V382z"/>
				<path class="st14" d="M458.1,356v41.5h-4.9V356H458.1z"/>
				<path class="st14" d="M471,356v41.5h-4.9V356H471z"/>
				<path class="st14" d="M490.5,401.5c-0.6,1.5-1.2,2.7-1.7,3.7c-0.6,1-1.2,1.8-1.9,2.5c-0.7,0.6-1.4,1.1-2.3,1.4
					c-0.8,0.3-1.8,0.4-2.9,0.4c-0.6,0-1.2,0-1.7-0.1c-0.6-0.1-1.1-0.2-1.7-0.4v-4.5c0.4,0.2,0.9,0.4,1.5,0.5c0.6,0.1,1,0.2,1.4,0.2
					c1,0,1.8-0.2,2.5-0.7c0.7-0.5,1.2-1.2,1.5-2.1l2-5.1l-11.9-29.9h5.6l8.8,24.6h0.1l8.4-24.6h5.2L490.5,401.5z"/>
				<path class="st14" d="M529,359v46h6.2v4h-10.9V355h10.9v4H529z"/>
				<path class="st14" d="M538.7,368.6c0.8-2.6,2.1-4.9,3.7-6.9c1.7-2,3.7-3.6,6.2-4.8c2.5-1.2,5.4-1.8,8.7-1.8
					c3.3,0,6.2,0.6,8.7,1.8c2.5,1.2,4.6,2.8,6.2,4.8c1.7,2,2.9,4.3,3.7,6.9c0.8,2.6,1.2,5.3,1.2,8.2c0,2.8-0.4,5.5-1.2,8.2
					c-0.8,2.6-2.1,4.9-3.7,6.9c-1.7,2-3.7,3.6-6.2,4.8c-2.5,1.2-5.4,1.8-8.7,1.8c-3.3,0-6.2-0.6-8.7-1.8c-2.5-1.2-4.6-2.8-6.2-4.8
					c-1.7-2-2.9-4.3-3.7-6.9c-0.8-2.6-1.2-5.3-1.2-8.2C537.4,374,537.9,371.2,538.7,368.6z M543.8,383c0.5,2,1.4,3.9,2.6,5.5
					c1.2,1.6,2.7,2.9,4.5,3.9c1.8,1,4,1.5,6.5,1.5c2.5,0,4.7-0.5,6.5-1.5c1.8-1,3.3-2.3,4.5-3.9c1.2-1.6,2-3.5,2.6-5.5
					c0.5-2,0.8-4.1,0.8-6.2c0-2.1-0.3-4.2-0.8-6.2c-0.5-2-1.4-3.9-2.6-5.5c-1.2-1.6-2.7-2.9-4.5-3.9c-1.8-1-4-1.5-6.5-1.5
					c-2.5,0-4.7,0.5-6.5,1.5c-1.8,1-3.3,2.3-4.5,3.9c-1.2,1.6-2,3.5-2.6,5.5c-0.5,2-0.8,4.1-0.8,6.2
					C543,378.9,543.2,380.9,543.8,383z"/>
				<path class="st14" d="M605.7,406c-2.2,2.4-5.8,3.7-10.6,3.7c-1.4,0-2.8-0.2-4.3-0.5c-1.5-0.3-2.8-0.8-4-1.5
					c-1.2-0.7-2.2-1.6-2.9-2.7c-0.8-1.1-1.2-2.5-1.3-4.1h4.9c0,0.9,0.3,1.6,0.8,2.3c0.5,0.6,1.2,1.1,1.9,1.5
					c0.8,0.4,1.6,0.7,2.5,0.8c0.9,0.2,1.7,0.3,2.6,0.3c1.6,0,3-0.3,4.1-0.8c1.1-0.6,2.1-1.3,2.8-2.3c0.7-1,1.3-2.2,1.6-3.6
					c0.3-1.4,0.5-2.9,0.5-4.6v-2h-0.1c-0.9,1.9-2.1,3.2-3.9,4.1c-1.7,0.9-3.6,1.3-5.5,1.3c-2.2,0-4.2-0.4-5.9-1.2
					c-1.7-0.8-3.1-1.9-4.2-3.3c-1.1-1.4-2-3-2.5-4.8c-0.6-1.8-0.8-3.8-0.8-5.8c0-1.8,0.2-3.6,0.7-5.5c0.5-1.9,1.2-3.6,2.3-5.1
					c1.1-1.5,2.5-2.8,4.3-3.8c1.8-1,4-1.5,6.6-1.5c1.9,0,3.6,0.4,5.2,1.2c1.6,0.8,2.8,2.1,3.7,3.7h0.1v-4.3h4.6V395
					C609,399.9,607.9,403.6,605.7,406z M599.4,392.5c1.1-0.7,2.1-1.6,2.8-2.7c0.7-1.1,1.2-2.4,1.5-3.7c0.3-1.4,0.5-2.8,0.5-4.2
					c0-1.3-0.2-2.6-0.5-3.9c-0.3-1.3-0.8-2.4-1.5-3.5c-0.7-1-1.6-1.8-2.6-2.5c-1.1-0.6-2.4-0.9-4-0.9c-1.6,0-2.9,0.3-4.1,0.9
					c-1.1,0.6-2,1.4-2.8,2.4c-0.7,1-1.2,2.2-1.6,3.5c-0.3,1.3-0.5,2.7-0.5,4.1c0,1.4,0.1,2.7,0.4,4.1c0.3,1.4,0.7,2.6,1.4,3.7
					c0.7,1.1,1.5,2,2.6,2.7c1.1,0.7,2.4,1,4.1,1C596.8,393.5,598.2,393.2,599.4,392.5z"/>
				<path class="st14" d="M619,405v-46h-6.2v-4h10.9V409h-10.9v-4H619z"/>
			</g>
		</g>
		<g>
			<path class="st14" d="M1053.7,1237.4c1.8,0,3.5-0.1,5.1-0.4s3.2-0.8,4.5-1.5c1.3-0.7,2.5-1.6,3.4-2.6c0.9-1.1,1.6-2.4,1.9-3.9
				h6.8v51.1h-9.1v-36.1h-12.6V1237.4z"/>
			<path class="st14" d="M1102.2,1267.1c0.2,2.1,0.9,3.8,2.2,5.1c1.3,1.3,3,1.9,5.2,1.9c2.2,0,4-0.6,5.4-1.8
				c1.3-1.2,2.4-2.7,3.1-4.5c0.7-1.8,1.2-3.7,1.5-5.7c0.3-2,0.5-3.9,0.6-5.6l-0.1-0.1c-1.1,2-2.7,3.5-4.6,4.6
				c-1.9,1-4.1,1.6-6.4,1.6c-2.4,0-4.6-0.4-6.6-1.2c-2-0.8-3.7-2-5.1-3.5c-1.4-1.5-2.5-3.3-3.3-5.4c-0.8-2.1-1.2-4.5-1.2-7.1
				c0-2.5,0.4-4.8,1.2-6.9c0.8-2.1,1.9-4,3.4-5.5c1.5-1.6,3.4-2.8,5.5-3.7c2.2-0.9,4.7-1.3,7.4-1.3c3.6,0,6.6,0.7,8.9,2.1
				c2.3,1.4,4.2,3.3,5.5,5.7c1.3,2.4,2.3,5.2,2.8,8.5c0.5,3.3,0.8,6.7,0.8,10.4c0,3.1-0.3,6.2-1,9.3c-0.7,3.1-1.7,5.9-3.2,8.5
				c-1.5,2.6-3.5,4.6-5.9,6.2c-2.5,1.6-5.5,2.4-9.1,2.4c-2,0-4-0.3-5.8-1c-1.8-0.7-3.4-1.6-4.8-2.8c-1.4-1.2-2.5-2.7-3.4-4.4
				c-0.9-1.7-1.4-3.6-1.5-5.7H1102.2z M1110.2,1234.8c-1.5,0-2.8,0.3-3.9,0.8c-1.1,0.6-2,1.3-2.8,2.3c-0.7,1-1.3,2.1-1.6,3.4
				c-0.4,1.3-0.5,2.6-0.5,3.9c0,1.4,0.2,2.8,0.5,4.1c0.4,1.3,0.9,2.4,1.6,3.4c0.7,1,1.7,1.8,2.8,2.4c1.1,0.6,2.4,0.9,3.9,0.9
				c1.6,0,2.9-0.3,4.1-0.9s2.1-1.4,2.9-2.4c0.8-1,1.3-2.1,1.7-3.4c0.4-1.3,0.6-2.6,0.6-4.1c0-1.4-0.2-2.7-0.6-3.9
				c-0.4-1.3-1-2.4-1.7-3.3c-0.8-0.9-1.7-1.7-2.9-2.3S1111.7,1234.8,1110.2,1234.8z"/>
			<path class="st14" d="M1147.7,1250.1c1.4,0,2.7,0,4.1-0.3c1.4-0.2,2.6-0.7,3.6-1.3c1.1-0.6,1.9-1.4,2.6-2.5s1-2.4,1-3.9
				c0-2.2-0.7-3.9-2.2-5.3c-1.5-1.3-3.4-2-5.7-2c-1.5,0-2.7,0.3-3.8,0.9c-1.1,0.6-2,1.4-2.7,2.4c-0.7,1-1.2,2.1-1.6,3.4
				c-0.3,1.2-0.5,2.5-0.4,3.8h-8.3c0.1-2.5,0.6-4.8,1.4-6.9c0.8-2.1,2-4,3.4-5.5c1.4-1.6,3.2-2.8,5.2-3.6s4.4-1.3,6.9-1.3
				c2,0,4,0.3,5.9,0.9c1.9,0.6,3.7,1.4,5.2,2.6c1.5,1.1,2.8,2.5,3.7,4.3c0.9,1.7,1.4,3.7,1.4,6c0,2.6-0.6,4.8-1.8,6.8
				c-1.2,1.9-3,3.3-5.5,4.2v0.1c2.9,0.6,5.2,2,6.8,4.3c1.6,2.3,2.4,5.1,2.4,8.4c0,2.4-0.5,4.6-1.5,6.5c-1,1.9-2.3,3.6-3.9,4.9
				c-1.7,1.3-3.6,2.4-5.8,3.1c-2.2,0.7-4.5,1.1-6.9,1.1c-3,0-5.6-0.4-7.8-1.3c-2.2-0.9-4.1-2.1-5.5-3.6c-1.5-1.6-2.6-3.4-3.4-5.6
				c-0.8-2.2-1.2-4.6-1.2-7.3h8.3c-0.1,3.1,0.7,5.7,2.3,7.8c1.6,2.1,4.1,3.1,7.3,3.1c2.8,0,5.1-0.8,7-2.4c1.9-1.6,2.8-3.8,2.8-6.8
				c0-2-0.4-3.6-1.2-4.7c-0.8-1.2-1.8-2.1-3.1-2.7s-2.7-1-4.3-1.1c-1.6-0.1-3.2-0.2-4.9-0.1V1250.1z"/>
			<path class="st14" d="M1176.7,1270.1h10.1v9.9h-10.1V1270.1z"/>
			<path class="st14" d="M1195.8,1237.4c1.8,0,3.5-0.1,5.1-0.4s3.2-0.8,4.5-1.5c1.3-0.7,2.5-1.6,3.4-2.6c0.9-1.1,1.6-2.4,1.9-3.9
				h6.8v51.1h-9.1v-36.1h-12.6V1237.4z"/>
			<path class="st14" d="M1270.6,1267.9h-6.6v12.1h-7.9v-12.1h-21.9v-8.2l21.9-30.7h7.9v32.4h6.6V1267.9z M1240.7,1261.3h15.5v-22.5
				h-0.1L1240.7,1261.3z"/>
		</g>
	</g>
</g>
<g id="guides_1_" class="st1">
</g>
</svg>
